<svg width="200" height="200" viewBox="0 0 200 200" fill="none" xmlns="http://www.w3.org/2000/svg">
<g clip-path="url(#clip0_200_21)">
<rect width="200" height="200" fill="white"/>
<rect x="6" y="6" width="188" height="188" stroke="#4A92FF" stroke-width="12"/>
<path d="M88.577 50.896C89.857 50.896 91.3077 50.8533 92.929 50.768C94.6357 50.6827 95.9157 50.5973 96.769 50.512C101.548 50.1707 105.26 50 107.905 50C117.974 50 125.228 51.9627 129.665 55.888C134.102 59.8133 136.321 64.8053 136.321 70.864C136.321 77.3493 134.486 82.6827 130.817 86.864C127.233 90.96 122.028 93.904 115.201 95.696C121.174 96.0373 126.081 98.0853 129.921 101.84C133.846 105.595 135.809 110.203 135.809 115.664C135.809 126.416 131.926 134.352 124.161 139.472C116.396 144.507 105.9 147.024 92.673 147.024C90.7103 147.024 87.5957 146.853 83.329 146.512C79.0623 146.171 76.2037 146 74.753 146H59.393L59.905 140.752L68.993 139.216L79.489 57.936L70.785 56.528L71.425 50.896H88.577ZM92.417 93.136H100.737C107.222 93.136 112.513 91.3867 116.609 87.888C120.79 84.3893 122.881 79.184 122.881 72.272C122.881 66.9813 121.43 63.056 118.529 60.496C115.628 57.8507 111.02 56.528 104.705 56.528C103.169 56.528 101.206 56.6133 98.817 56.784C96.4277 56.8693 94.5077 57.04 93.057 57.296L88.449 93.136H92.417ZM82.561 138.96C83.841 139.387 85.761 139.728 88.321 139.984C90.9663 140.155 93.185 140.24 94.977 140.24C103.084 140.24 109.441 138.448 114.049 134.864C118.742 131.195 121.089 125.435 121.089 117.584C121.089 111.781 119.468 107.472 116.225 104.656C113.068 101.755 108.161 100.304 101.505 100.304C95.7877 100.304 91.137 100.389 87.553 100.56L82.561 138.96Z" fill="#4A92FF"/>
</g>
<defs>
<clipPath id="clip0_200_21">
<rect width="200" height="200" fill="white"/>
</clipPath>
</defs>
</svg>
